<svg width="200" height="200" viewBox="0 0 200 200" fill="none" xmlns="http://www.w3.org/2000/svg">
<rect width="200" height="200" rx="15" fill="#1F6ADA"/>
<path d="M83.2333 156V69.9744C83.2333 60.4855 86.0487 52.9256 91.6795 47.2949C97.3103 41.5598 105.339 38.6923 115.767 38.6923C119.312 38.6923 122.701 39.0573 125.933 39.7872C129.27 40.5171 132.085 41.6641 134.379 43.2282L127.967 60.9026C126.611 59.9641 125.099 59.2342 123.431 58.7128C121.762 58.1915 119.99 57.9308 118.113 57.9308C114.568 57.9308 111.804 58.9735 109.823 61.059C107.946 63.0402 107.008 66.0641 107.008 70.1308V77.9513L107.633 88.4308V156H83.2333ZM70.2513 92.4974V73.7282H128.592V92.4974H70.2513Z" fill="white"/>
</svg>
