<svg width="130" height="122" viewBox="0 0 130 122" fill="none" xmlns="http://www.w3.org/2000/svg">
<path fill-rule="evenodd" clip-rule="evenodd" d="M1.60273 47.4769C10.6116 8.30682 51.2563 -4.244 77.403 1.21109C77.403 7.69158 77.403 14.1721 77.403 20.6526C82.0541 28.5686 86.6633 36.4846 91.3144 44.3597C94.1218 40.053 96.9711 35.7464 99.7785 31.3987C121.526 49.1995 115.031 75.8188 99.15 90.5844C96.8035 87.7133 94.457 84.8422 92.0686 81.9711C102.502 72.6605 107.153 60.725 100.491 50.1019C97.1806 55.3929 93.9123 60.6839 90.6021 65.934C86.2862 58.264 82.0122 50.5941 77.6963 42.9241C77.6963 62.1605 77.6963 81.3969 77.6963 100.633C74.3023 101.29 70.9082 101.987 67.5142 102.643C67.5142 72.0863 67.5142 41.5706 67.5142 11.0139C41.8284 12.8596 16.6036 22.2112 11.4915 53.3421C7.04996 80.5356 24.9001 99.3208 46.1443 106.293C46.1443 110.477 46.1443 114.661 46.1443 118.885C17.4835 109.329 -6.52621 83.0375 1.60273 47.4769Z" fill="#A5BB27"/>
<path fill-rule="evenodd" clip-rule="evenodd" d="M27.2879 54.4084C30.6401 42.8419 38.8947 35.5411 51.2977 31.8907C51.2977 35.336 51.2977 38.7404 51.2977 42.1447C54.9431 42.1447 58.5886 42.1447 62.234 42.1447C62.234 34.1466 62.234 26.1485 62.234 18.1915C28.9221 22.17 15.2202 39.3556 15.9326 66.3029C27.9584 66.3029 40.0261 66.3029 52.0938 66.3029C52.0938 73.9319 52.0938 81.6018 52.0938 89.2308C44.4258 87.8362 38.7271 83.8987 33.9503 78.7717C29.4668 78.7717 25.0253 78.7717 20.5418 78.7717C27.707 90.0921 37.5958 98.1722 51.8005 101.043C51.8005 107.483 51.8005 113.963 51.8005 120.444C77.151 123.561 99.8618 117.696 117.586 95.055C131.707 75.6956 131.498 57.3615 124.835 39.4376C117.293 19.1758 101.035 7.81447 83.1849 2.27734C83.1849 6.17384 83.1849 10.1114 83.1849 14.0489C101.915 20.7344 119.723 37.3868 119.22 61.9553C118.592 94.2757 86.1599 111.461 61.7312 109.698C61.7312 91.2815 61.7312 72.8655 61.7312 54.4084C50.2501 54.4084 38.769 54.4084 27.2879 54.4084Z" fill="#F6C000"/>
</svg>
